<svg width="184" height="161" xmlns="http://www.w3.org/2000/svg"><defs><linearGradient x1="49.999%" y1="100.009%" x2="49.999%" y2="0%" id="a"><stop stop-color="gray" stop-opacity=".25" offset="0%"/><stop stop-color="gray" stop-opacity=".12" offset="54%"/><stop stop-color="gray" stop-opacity=".1" offset="100%"/></linearGradient></defs><g fill="none" fill-rule="evenodd"><path fill="#1C75BC" fill-rule="nonzero" opacity=".2" d="M156 57h11v6h-11zM157 64h11v6h-11zM148 17h11v6h-11zM155 24h11v6h-11zM135 18h11v6h-11zM169 30h11v6h-11zM156 31h11v6h-11zM143 24h11v6h-11zM169 73h11v6h-11zM156 73h11v6h-11zM0 58h11v6H0zM8 64h11v6H8zM65 0h11v6H65zM149 102h11v6h-11zM8 71h11v6H8zM73 6h11v6H73zM34 43h11v6H34zM41 50h11v6H41zM61 46h11v6H61zM42 57h11v6H42zM163 102h11v6h-11z"/><path d="M147.676 79.414a84.091 84.091 0 0 1-1.269-11.604c-.28-6.57-4.673-12.253-10.975-14.197a43.132 43.132 0 0 0-3.718-.954c-11.948-2.529-15.578-.321-15.99-.03-.35-.634-.654-1.29-.91-1.967l-.06-.205a15.223 15.223 0 0 0 4.088-9.185c1.993-2.014 3.157-4.445 3.157-7.062 0-2.25-.862-4.363-2.371-6.19v-3.556c0-4.102-1.635-8.035-4.544-10.935A15.54 15.54 0 0 0 104.114 9h-1.259a15.54 15.54 0 0 0-10.97 4.53 15.438 15.438 0 0 0-4.545 10.934v3.832c-1.369 1.762-2.145 3.774-2.145 5.91 0 2.562 1.117 4.944 3.034 6.933a15.226 15.226 0 0 0 4.258 9.482c.084.581.17 1.205.255 1.864l-21.372 4.5s-8.24.338-13.55 11.255c-4.49 9.247-13.424 33.004-16.07 40.076-.479 1.28-.75 2.015-.75 2.015s.088-.088.255-.239l-.255.69s.13-.131.376-.346c-.374 2.959-.427 8.04 3.461 8.672 3.26.53 11.661.749 18.007.837h.44c4.206.055 7.407.055 7.407.055v-.055h68.25v-.698c0-.633-.127-1.26-.376-1.842l.094-.114c.366.48.609 1.042.709 1.637a1.632 1.632 0 0 1-.033.172l.04-.105c.017.186.003.373-.04.555 0 0 8.756-22.487 8.661-35.914a22.675 22.675 0 0 0-.32-4.222zm-54.579-23.89a15.554 15.554 0 0 1-.218-1.94v-.018c.076.632.15 1.287.218 1.958zm-26.529 48.3v5.36l-3.367.718 3.367-6.078z" fill="url(#a)" fill-rule="nonzero"/><path d="M103.5 12c8.56 0 15.5 6.904 15.5 15.421V34H88v-6.579C88 18.904 94.94 12 103.5 12z" fill="#1C75BC" fill-rule="nonzero"/><ellipse fill="#1C75BC" fill-rule="nonzero" cx="102.5" cy="36" rx="17.5" ry="12"/><path d="M91.575 47.842s3.625 19.536 0 24.804C87.95 77.915 102.653 80 102.653 80l15.218-5.707L120 60.244s-9.265-5.379-7.345-16.244l-21.08 3.842zM137.93 112.719s.974 4.207-4.328 4.963a30.06 30.06 0 0 1-9.433-.113L123 107h12.334l2.596 5.719zM44.51 107.31s-2.32 9.896 2.935 10.79c5.256.894 24.555.9 24.555.9v-11.708l-8.738 1.959L55.059 101l-10.548 6.31z" fill="#BE8A64" fill-rule="nonzero"/><path d="M93.57 53.936l-20.614 4.378s-7.858.326-12.917 10.813C54.979 79.614 44 109.565 44 109.565s9.369-9.515 20.345.648l7.32-13.298L70.048 118h56.718v-9.949s11.84 6.379 10.98 9.947c0 0 10.133-26.224 7.943-38.14a81.404 81.404 0 0 1-1.21-11.15c-.265-6.313-4.455-11.775-10.464-13.64a40.336 40.336 0 0 0-3.544-.915c-12.163-2.594-15.275 0-15.275 0s-2.357 7.7-2.314 11.19c.053 4.487-6.35 7.462-6.35 7.462s-9.473-2.27-9.903-4.108c-.43-1.837-3.819-12.598-3.06-14.76z" fill="#000" fill-rule="nonzero" opacity=".1"/><path d="M93.57 53.936l-20.613 4.378s-7.857.326-12.916 10.813C54.98 79.614 44 109.571 44 109.571s9.369-9.516 20.344.648l7.32-13.298L70.049 118h56.719v-9.947s11.839 6.379 10.98 9.947c0 0 10.132-26.225 7.942-38.142a81.41 81.41 0 0 1-1.21-11.15c-.265-6.313-4.455-11.775-10.464-13.64a40.334 40.334 0 0 0-3.544-.915c-12.163-2.594-15.275 0-15.275 0s-2.356 7.7-2.313 11.191c.053 4.487-6.35 7.462-6.35 7.462s-9.473-2.271-9.903-4.109c-.43-1.837-3.818-12.598-3.06-14.76z" fill="#0F3F65" fill-rule="nonzero"/><path d="M114 52.473a13.877 13.877 0 0 1-.565-7.473L92 48.683s.31 1.576.66 3.936c2.798 2.824 6.666 4.408 10.7 4.38 4.033-.027 7.878-1.663 10.636-4.526H114z" fill="#000" fill-rule="nonzero" opacity=".1"/><path d="M117 41.531c-.034 7.933-6.411 14.372-14.327 14.468-7.916.096-14.447-6.187-14.673-14.116v-.352A14.537 14.537 0 0 1 97.469 27.9a14.578 14.578 0 0 1 7.465-.696c6.613 1.129 11.589 6.657 12.028 13.364.025.32.038.64.038.964z" fill="#BE8A64" fill-rule="nonzero"/><g opacity=".1" fill="#000" fill-rule="nonzero"><path d="M97.453 27.898l.02-.012c-.457.17-.903.362-1.337.575-4.967 2.447-8.115 7.527-8.114 13.093v.353c.45-.012.893-.12 1.3-.314 3.527-1.659 5.638-6.73 6.476-10.267.302-1.267.586-2.694 1.655-3.428z"/><path d="M108.532 28.305a14.287 14.287 0 0 0-3.6-1.116 4.64 4.64 0 0 1 2.585 1.633c.32.439.586.915.791 1.42a14.429 14.429 0 0 0-12.174.253c.908 2.004 3.726 3.097 5.607 3.829 2.06.8 4.14 1.531 6.243 2.195l-1.861-1.52 4.203.673a7.373 7.373 0 0 0-.294-2.494c.806.653 1.873.872 2.747 1.42 1.637 1.04 2.32 3.04 3.212 4.773.236.458.514.926.939 1.216-.35-5.334-3.573-10.047-8.398-12.282z"/></g><path d="M97.979 28.012L98 28c-.484.17-.956.362-1.415.575C91.33 31.018 88 36.09 88 41.648V42c.476-.012.944-.12 1.374-.314 3.734-1.655 5.967-6.72 6.853-10.251.32-1.257.62-2.688 1.752-3.423z" fill="#000" fill-rule="nonzero"/><path d="M108.52 28.167A14.077 14.077 0 0 0 104.884 27a4.67 4.67 0 0 1 2.61 1.707c.323.458.591.956.799 1.483A14.13 14.13 0 0 0 96 30.454c.917 2.095 3.762 3.237 5.662 4.001 2.08.836 4.181 1.6 6.304 2.294l-1.879-1.588 4.244.703a7.957 7.957 0 0 0-.296-2.605c.813.682 1.89.91 2.774 1.482 1.653 1.087 2.342 3.177 3.243 4.988.238.479.519.968.948 1.271-.353-5.574-3.608-10.499-8.48-12.833z" fill="#000" fill-rule="nonzero"/><path d="M86 39s15.3-18.83 33 0l-1.53-4.218s-8.305-12.007-14.204-9.416c-5.899 2.592-11.692 4.436-11.692 4.436L86 39z" fill="#000" fill-rule="nonzero" opacity=".1"/><path d="M86 39s15.3-18.83 33 0l-1.53-4.218s-8.305-12.007-14.204-9.416c-5.899 2.592-11.692 4.436-11.692 4.436L86 39z" fill="#1C75BC" fill-rule="nonzero"/><path d="M74.535 79s-3.042 8.819 1.217 16.755C80.012 103.692 72 107 72 107M126.61 72s5.97 7.086 2.066 13.42-3.673 21.58-3.673 21.58" fill="#000" fill-rule="nonzero" opacity=".1"/><path d="M69.197 113h62.604c2.871 0 5.199 2.239 5.199 5H64c0-2.76 2.327-4.999 5.197-5z" fill="#535461" fill-rule="nonzero"/><path d="M75.89 77h49.22c2.093 0 4.1.844 5.58 2.345a8.068 8.068 0 0 1 2.31 5.662V114H68V85.007C68 80.585 71.532 77 75.89 77z" fill="#535461" fill-rule="nonzero"/><circle fill="#FFF" fill-rule="nonzero" cx="100" cy="98" r="4"/><path d="M88 31s14.914-15.558 31-.285" stroke="#000" opacity=".1"/><path fill="#383838" fill-rule="nonzero" d="M121 30h2v8h-2z"/><path d="M120 35c2.761 0 5 2.386 5 5.328v.344c0 2.942-2.239 5.328-5 5.328V35z" fill="#000" fill-rule="nonzero"/><rect fill="#383838" fill-rule="nonzero" x="119" y="34" width="2" height="12" rx="1"/><path fill="#383838" fill-rule="nonzero" d="M85 38h-2v-8h2z"/><path d="M87 46c-2.761 0-5-2.386-5-5.328v-.344c0-1.413.527-2.768 1.464-3.767.938-1 2.21-1.561 3.536-1.561v11z" fill="#000" fill-rule="nonzero"/><rect fill="#383838" fill-rule="nonzero" transform="rotate(-180 87 40)" x="86" y="34" width="2" height="12" rx="1"/><path d="M120.883 20.736c-2.053-4.217-6.524-9.316-16.161-9.724V11h-.116l-3.415.16v.016c-9.573.435-14.023 5.515-16.07 9.718A21.646 21.646 0 0 0 83 30l1.179-.029 1.179-.026c.05-2.806.704-5.568 1.916-8.106 2.599-5.275 7.38-8.078 14.212-8.339l3.02-.166c6.835.258 11.62 3.066 14.216 8.34a19.628 19.628 0 0 1 1.92 8.109l1.179.026 1.179.029a21.646 21.646 0 0 0-2.117-9.102z" fill="#000" fill-rule="nonzero"/><path fill="#D6D6E3" fill-rule="nonzero" d="M15 119h158v42H15z"/><path fill="#000" fill-rule="nonzero" opacity=".1" d="M15 121h158v6H15z"/><path fill="#D6D6E3" fill-rule="nonzero" d="M5 117h179v6H5z"/></g></svg>
